<?xml version="1.0" encoding="UTF-8" standalone="no"?>
<!DOCTYPE svg PUBLIC "-//W3C//DTD SVG 1.1//EN" "http://www.w3.org/Graphics/SVG/1.1/DTD/svg11.dtd">
<svg width="100%" height="100%" viewBox="0 0 218 71" version="1.1" xmlns="http://www.w3.org/2000/svg" xmlns:xlink="http://www.w3.org/1999/xlink" xml:space="preserve" xmlns:serif="http://www.serif.com/" style="fill-rule:evenodd;clip-rule:evenodd;stroke-linejoin:round;stroke-miterlimit:2;">
    <g transform="matrix(1,0,0,1,-833.792392,-1383.979397)">
        <g transform="matrix(0.301605,0,0,0.301605,193.042734,1127.816076)">
            <g transform="matrix(1.052632,0,0,1.166667,-129.357814,-161)">
                <path d="M2774.465,866L2774.465,1066L2141.132,1066L2141.132,866L2774.465,866ZM2758.632,1051.714L2758.632,923.143C2758.632,911.776 2753.627,900.876 2744.719,892.838C2735.811,884.801 2723.73,880.286 2711.132,880.286C2698.534,880.286 2686.452,884.801 2677.544,892.838C2668.637,900.875 2663.632,911.775 2663.632,923.141C2663.632,911.775 2658.628,900.875 2649.72,892.838C2640.812,884.801 2628.731,880.286 2616.134,880.286L2616.132,880.286C2603.534,880.286 2591.452,884.801 2582.544,892.838C2573.636,900.876 2568.632,911.776 2568.632,923.143L2568.632,1051.714L2758.632,1051.714ZM2410.298,966L2362.798,966L2362.798,1051.714L2505.298,1051.714C2517.896,1051.714 2529.978,1047.199 2538.886,1039.162C2547.794,1031.124 2552.798,1020.224 2552.798,1008.857C2552.798,997.491 2547.794,986.59 2538.886,978.553C2529.978,970.515 2517.896,966 2505.298,966L2552.798,966L2552.798,880.286L2410.298,880.286C2397.701,880.286 2385.619,884.801 2376.711,892.838C2367.803,900.876 2362.798,911.776 2362.798,923.143C2362.798,934.509 2367.803,945.41 2376.711,953.447C2385.619,961.485 2397.701,966 2410.298,966ZM2346.965,880.286L2156.965,880.286L2156.965,1051.714L2346.965,1051.714L2346.965,880.286Z" style="fill:white;"/>
            </g>
            <g transform="matrix(1,0,0,1,-31.711652,1.878268)">
                <g transform="matrix(0.967788,0,0,1,91.224808,0)">
                    <g transform="matrix(33.333333,0,0,33.333333,2832.013767,871.755065)">
                        <path d="M0.262,-0L0.262,-0.665L0.347,-0.665L0.347,-0L0.262,-0ZM0.026,-0.654L0.026,-0.729L0.585,-0.729L0.585,-0.654L0.026,-0.654Z" style="fill:white;fill-rule:nonzero;"/>
                    </g>
                    <g transform="matrix(33.333333,0,0,33.333333,2852.356608,871.755065)">
                        <path d="M0.084,-0L0.084,-0.729L0.223,-0.729L0.384,-0.298L0.444,-0.109L0.45,-0.109L0.511,-0.298L0.672,-0.729L0.81,-0.729L0.81,-0L0.727,-0L0.727,-0.38L0.73,-0.651L0.723,-0.651L0.635,-0.401L0.486,-0L0.408,-0L0.261,-0.397L0.172,-0.651L0.165,-0.651L0.168,-0.38L0.168,-0L0.084,-0Z" style="fill:white;fill-rule:nonzero;"/>
                    </g>
                    <g transform="matrix(33.333333,0,0,33.333333,2882.156558,871.755065)">
                    </g>
                </g>
            </g>
        </g>
    </g>
</svg>
