<?xml version="1.0" encoding="UTF-8" standalone="no"?>
<!DOCTYPE svg PUBLIC "-//W3C//DTD SVG 1.1//EN" "http://www.w3.org/Graphics/SVG/1.1/DTD/svg11.dtd">
<svg width="100%" height="100%" viewBox="0 0 634 200" version="1.1" xmlns="http://www.w3.org/2000/svg" xmlns:xlink="http://www.w3.org/1999/xlink" xml:space="preserve" xmlns:serif="http://www.serif.com/" style="fill-rule:evenodd;clip-rule:evenodd;stroke-linejoin:round;stroke-miterlimit:2;">
    <g transform="matrix(1,0,0,1,-1505.776984,-1765.894309)">
        <path d="M1505.777,1807.561L1505.777,1765.894L1705.777,1765.894L1705.777,1965.894L1505.777,1965.894L1505.777,1824.228L1705.671,1824.228L1705.671,1807.561L1505.777,1807.561ZM1772.444,1865.894C1759.183,1865.894 1746.465,1860.626 1737.088,1851.25C1727.711,1841.873 1722.444,1829.155 1722.444,1815.894C1722.444,1802.633 1727.712,1789.916 1737.088,1780.539C1746.465,1771.162 1759.183,1765.894 1772.444,1765.894L1922.444,1765.894L1922.444,1865.894L1872.444,1865.894C1885.704,1865.894 1898.422,1871.162 1907.799,1880.539C1917.176,1889.916 1922.444,1902.633 1922.444,1915.894C1922.444,1929.155 1917.176,1941.873 1907.799,1951.25C1898.422,1960.626 1885.704,1965.894 1872.444,1965.894L1722.444,1965.894L1722.444,1865.894L1772.444,1865.894ZM2139.11,1965.894L1939.11,1965.894L1939.11,1815.894C1939.11,1802.634 1944.378,1789.916 1953.755,1780.539C1963.132,1771.162 1975.849,1765.894 1989.11,1765.894L1989.112,1765.894C2002.373,1765.894 2015.09,1771.162 2024.466,1780.538C2033.843,1789.915 2039.11,1802.632 2039.11,1815.892C2039.111,1802.632 2044.379,1789.915 2053.755,1780.539C2063.132,1771.162 2075.849,1765.894 2089.11,1765.894C2102.371,1765.894 2115.089,1771.162 2124.466,1780.539C2133.842,1789.916 2139.11,1802.634 2139.11,1815.894L2139.11,1965.894Z" style="fill:white;"/>
    </g>
</svg>
